<mxfile host="65bd71144e">
    <diagram id="PvVdq7S-jclWojyiS0Vs" name="Page-1">
        <mxGraphModel dx="773" dy="604" grid="1" gridSize="10" guides="1" tooltips="1" connect="1" arrows="1" fold="1" page="1" pageScale="1" pageWidth="850" pageHeight="1100" background="#FFFFFF" math="0" shadow="0">
            <root>
                <mxCell id="0"/>
                <mxCell id="1" parent="0"/>
                <mxCell id="9" value="" style="edgeStyle=none;html=1;fontColor=#FFFFFF;" parent="1" target="7" edge="1">
                    <mxGeometry relative="1" as="geometry">
                        <mxPoint x="400" y="120" as="sourcePoint"/>
                    </mxGeometry>
                </mxCell>
                <mxCell id="21" value="" style="edgeStyle=none;html=1;fontColor=#FFFFFF;startArrow=none;startFill=0;" parent="1" source="7" target="13" edge="1">
                    <mxGeometry relative="1" as="geometry"/>
                </mxCell>
                <mxCell id="7" value="lambda_handler" style="html=1;outlineConnect=0;whiteSpace=wrap;fillColor=#d80073;shape=mxgraph.archimate.application;appType=function;strokeColor=#A50040;fontColor=#ffffff;" parent="1" vertex="1">
                    <mxGeometry x="340" y="170" width="120" height="75" as="geometry"/>
                </mxCell>
                <mxCell id="108" value="" style="edgeStyle=none;html=1;fontSize=11;fontColor=#FFFFFF;startArrow=none;startFill=0;endArrow=classic;endFill=1;" parent="1" source="11" target="60" edge="1">
                    <mxGeometry relative="1" as="geometry"/>
                </mxCell>
                <mxCell id="11" value="process_body" style="html=1;outlineConnect=0;whiteSpace=wrap;fillColor=#d80073;shape=mxgraph.archimate.application;appType=function;strokeColor=#A50040;fontColor=#ffffff;" parent="1" vertex="1">
                    <mxGeometry x="340" y="420" width="120" height="75" as="geometry"/>
                </mxCell>
                <mxCell id="22" value="" style="edgeStyle=none;html=1;fontColor=#FFFFFF;startArrow=none;startFill=0;" parent="1" source="13" target="11" edge="1">
                    <mxGeometry relative="1" as="geometry"/>
                </mxCell>
                <mxCell id="13" value="get_environment_variables" style="html=1;outlineConnect=0;whiteSpace=wrap;fillColor=#d80073;shape=mxgraph.archimate.application;appType=function;strokeColor=#A50040;fontColor=#ffffff;" parent="1" vertex="1">
                    <mxGeometry x="320" y="290" width="160" height="75" as="geometry"/>
                </mxCell>
                <mxCell id="83" value="" style="edgeStyle=none;html=1;fontSize=11;fontColor=#FFFFFF;startArrow=none;startFill=0;endArrow=classic;endFill=1;" parent="1" source="15" target="17" edge="1">
                    <mxGeometry relative="1" as="geometry"/>
                </mxCell>
                <mxCell id="15" value="get_message_from_line" style="html=1;outlineConnect=0;whiteSpace=wrap;fillColor=#d80073;shape=mxgraph.archimate.application;appType=function;strokeColor=#A50040;fontColor=#ffffff;" parent="1" vertex="1">
                    <mxGeometry x="330" y="630" width="140" height="75" as="geometry"/>
                </mxCell>
                <mxCell id="130" value="" style="edgeStyle=none;html=1;fontSize=11;fontColor=#FFFFFF;startArrow=none;startFill=0;endArrow=classic;endFill=1;" parent="1" source="17" target="87" edge="1">
                    <mxGeometry relative="1" as="geometry"/>
                </mxCell>
                <mxCell id="17" value="process_message" style="html=1;outlineConnect=0;whiteSpace=wrap;fillColor=#d80073;shape=mxgraph.archimate.application;appType=function;strokeColor=#A50040;fontColor=#ffffff;" parent="1" vertex="1">
                    <mxGeometry x="340" y="740" width="120" height="75" as="geometry"/>
                </mxCell>
                <mxCell id="133" value="" style="edgeStyle=none;html=1;fontSize=11;fontColor=#FFFFFF;startArrow=none;startFill=0;endArrow=classic;endFill=1;entryX=0.5;entryY=0;entryDx=0;entryDy=0;entryPerimeter=0;" parent="1" source="19" target="89" edge="1">
                    <mxGeometry relative="1" as="geometry">
                        <mxPoint x="400" y="1080" as="targetPoint"/>
                    </mxGeometry>
                </mxCell>
                <mxCell id="19" value="process_message_line" style="html=1;outlineConnect=0;whiteSpace=wrap;fillColor=#d80073;shape=mxgraph.archimate.application;appType=function;strokeColor=#A50040;fontColor=#ffffff;" parent="1" vertex="1">
                    <mxGeometry x="330" y="965" width="140" height="75" as="geometry"/>
                </mxCell>
                <mxCell id="33" value="" style="edgeStyle=none;html=1;fontColor=#000000;startArrow=none;startFill=0;labelBackgroundColor=#000000;" parent="1" source="26" target="28" edge="1">
                    <mxGeometry relative="1" as="geometry"/>
                </mxCell>
                <mxCell id="34" value="Yes" style="edgeLabel;html=1;align=center;verticalAlign=middle;resizable=0;points=[];fontColor=#000000;" parent="33" vertex="1" connectable="0">
                    <mxGeometry x="-0.2543" y="2" relative="1" as="geometry">
                        <mxPoint x="-2" as="offset"/>
                    </mxGeometry>
                </mxCell>
                <mxCell id="94" value="" style="edgeStyle=none;html=1;fontSize=11;fontColor=#FFFFFF;startArrow=none;startFill=0;endArrow=classic;endFill=1;" parent="1" source="26" edge="1">
                    <mxGeometry relative="1" as="geometry">
                        <mxPoint x="400" y="1310" as="targetPoint"/>
                    </mxGeometry>
                </mxCell>
                <mxCell id="95" value="No" style="edgeLabel;html=1;align=center;verticalAlign=middle;resizable=0;points=[];fontSize=11;fontColor=#000000;" parent="94" vertex="1" connectable="0">
                    <mxGeometry x="-0.5765" y="-2" relative="1" as="geometry">
                        <mxPoint x="2" y="3" as="offset"/>
                    </mxGeometry>
                </mxCell>
                <mxCell id="26" value="&lt;font style=&quot;font-size: 9px;&quot;&gt;max ingest reached?&lt;/font&gt;" style="rhombus;whiteSpace=wrap;html=1;fontColor=#000000;" parent="1" vertex="1">
                    <mxGeometry x="360" y="1170" width="80" height="80" as="geometry"/>
                </mxCell>
                <mxCell id="96" style="edgeStyle=none;html=1;exitX=0.5;exitY=1;exitDx=0;exitDy=0;exitPerimeter=0;fontSize=11;fontColor=#FFFFFF;startArrow=none;startFill=0;endArrow=classic;endFill=1;entryX=0.5;entryY=0;entryDx=0;entryDy=0;" parent="1" source="28" edge="1">
                    <mxGeometry relative="1" as="geometry">
                        <mxPoint x="400" y="1310" as="targetPoint"/>
                    </mxGeometry>
                </mxCell>
                <mxCell id="28" value="package_for_s3" style="html=1;outlineConnect=0;whiteSpace=wrap;fillColor=#d80073;shape=mxgraph.archimate.application;appType=function;strokeColor=#A50040;fontColor=#ffffff;" parent="1" vertex="1">
                    <mxGeometry x="140" y="1172.5" width="140" height="75" as="geometry"/>
                </mxCell>
                <mxCell id="125" style="edgeStyle=none;html=1;exitX=0.5;exitY=1;exitDx=0;exitDy=0;exitPerimeter=0;entryX=0.5;entryY=0;entryDx=0;entryDy=0;fontSize=11;fontColor=#FFFFFF;startArrow=none;startFill=0;endArrow=classic;endFill=1;" parent="1" source="36" target="39" edge="1">
                    <mxGeometry relative="1" as="geometry"/>
                </mxCell>
                <mxCell id="36" value="process_for_firehose" style="html=1;outlineConnect=0;whiteSpace=wrap;fillColor=#d80073;shape=mxgraph.archimate.application;appType=function;strokeColor=#A50040;fontColor=#ffffff;" parent="1" vertex="1">
                    <mxGeometry x="140" y="1312.5" width="140" height="77.5" as="geometry"/>
                </mxCell>
                <mxCell id="126" value="Yes" style="edgeStyle=none;html=1;exitX=0;exitY=0.5;exitDx=0;exitDy=0;fontSize=11;fontColor=default;startArrow=none;startFill=0;endArrow=classic;endFill=1;" parent="1" source="39" edge="1">
                    <mxGeometry relative="1" as="geometry">
                        <mxPoint x="280" y="1480.142857142857" as="targetPoint"/>
                    </mxGeometry>
                </mxCell>
                <mxCell id="127" value="No" style="edgeStyle=none;html=1;exitX=0.5;exitY=1;exitDx=0;exitDy=0;fontSize=11;fontColor=default;startArrow=none;startFill=0;endArrow=classic;endFill=1;" parent="1" source="39" edge="1">
                    <mxGeometry relative="1" as="geometry">
                        <mxPoint x="400.1379310344828" y="1580" as="targetPoint"/>
                    </mxGeometry>
                </mxCell>
                <mxCell id="39" value="&lt;font style=&quot;font-size: 9px;&quot;&gt;max batch size reached?&lt;/font&gt;" style="rhombus;whiteSpace=wrap;html=1;fontColor=default;" parent="1" vertex="1">
                    <mxGeometry x="360" y="1440" width="80" height="80" as="geometry"/>
                </mxCell>
                <mxCell id="129" style="edgeStyle=none;html=1;exitX=0.5;exitY=1;exitDx=0;exitDy=0;exitPerimeter=0;fontSize=11;fontColor=#FFFFFF;startArrow=none;startFill=0;endArrow=classic;endFill=1;entryX=0.5;entryY=0;entryDx=0;entryDy=0;" parent="1" source="41" target="142" edge="1">
                    <mxGeometry relative="1" as="geometry">
                        <mxPoint x="330" y="1590" as="targetPoint"/>
                    </mxGeometry>
                </mxCell>
                <mxCell id="41" value="&lt;font style=&quot;font-size: 9px;&quot;&gt;put_records_to_firehose_stream&lt;/font&gt;" style="html=1;outlineConnect=0;whiteSpace=wrap;fillColor=#d80073;shape=mxgraph.archimate.application;appType=function;strokeColor=#A50040;fontColor=#ffffff;" parent="1" vertex="1">
                    <mxGeometry x="140" y="1440" width="140" height="70" as="geometry"/>
                </mxCell>
                <mxCell id="138" value="Yes" style="edgeStyle=none;html=1;fontSize=9;fontColor=default;startArrow=none;startFill=0;endArrow=classic;endFill=1;" parent="1" source="54" target="137" edge="1">
                    <mxGeometry relative="1" as="geometry"/>
                </mxCell>
                <mxCell id="140" value="No" style="edgeStyle=none;html=1;fontSize=9;fontColor=default;startArrow=none;startFill=0;endArrow=classic;endFill=1;" parent="1" source="54" target="139" edge="1">
                    <mxGeometry relative="1" as="geometry"/>
                </mxCell>
                <mxCell id="54" value="&lt;font style=&quot;font-size: 9px;&quot;&gt;count for&lt;br&gt;&amp;nbsp;firehose &amp;gt; 0?&lt;/font&gt;" style="rhombus;whiteSpace=wrap;html=1;fontSize=9;fontColor=default;" parent="1" vertex="1">
                    <mxGeometry x="360" y="2040" width="80" height="80" as="geometry"/>
                </mxCell>
                <mxCell id="61" value="" style="edgeStyle=none;html=1;fontSize=12;fontColor=#FFFFFF;startArrow=none;startFill=0;endArrow=classic;endFill=1;" parent="1" source="60" target="15" edge="1">
                    <mxGeometry relative="1" as="geometry"/>
                </mxCell>
                <mxCell id="60" value="&lt;font style=&quot;font-size: 12px;&quot;&gt;Start&lt;/font&gt;" style="rounded=1;whiteSpace=wrap;html=1;fontSize=9;fontColor=#ffffff;fillColor=#647687;strokeColor=#314354;" parent="1" vertex="1">
                    <mxGeometry x="340" y="530" width="120" height="60" as="geometry"/>
                </mxCell>
                <mxCell id="88" value="" style="edgeStyle=none;html=1;fontSize=11;fontColor=#FFFFFF;startArrow=none;startFill=0;endArrow=classic;endFill=1;" parent="1" source="87" target="19" edge="1">
                    <mxGeometry relative="1" as="geometry"/>
                </mxCell>
                <mxCell id="87" value="Start" style="rounded=1;whiteSpace=wrap;html=1;fontSize=11;fontColor=#ffffff;fillColor=#1ba1e2;strokeColor=#006EAF;" parent="1" vertex="1">
                    <mxGeometry x="340" y="860" width="120" height="60" as="geometry"/>
                </mxCell>
                <mxCell id="92" value="" style="edgeStyle=none;html=1;fontSize=11;fontColor=#FFFFFF;startArrow=none;startFill=0;endArrow=classic;endFill=1;" parent="1" source="89" target="26" edge="1">
                    <mxGeometry relative="1" as="geometry"/>
                </mxCell>
                <mxCell id="89" value="get_message_metadata" style="html=1;outlineConnect=0;whiteSpace=wrap;fillColor=#d80073;shape=mxgraph.archimate.application;appType=function;strokeColor=#A50040;fontColor=#ffffff;" parent="1" vertex="1">
                    <mxGeometry x="330" y="1070" width="140" height="75" as="geometry"/>
                </mxCell>
                <mxCell id="117" value="Yes" style="edgeStyle=none;html=1;fontSize=11;fontColor=default;startArrow=none;startFill=0;endArrow=classic;endFill=1;" parent="1" source="115" target="36" edge="1">
                    <mxGeometry relative="1" as="geometry"/>
                </mxCell>
                <mxCell id="115" value="not for S3?" style="rhombus;whiteSpace=wrap;html=1;fontSize=11;fontColor=default;" parent="1" vertex="1">
                    <mxGeometry x="362.5" y="1310" width="75" height="80" as="geometry"/>
                </mxCell>
                <mxCell id="122" value="" style="endArrow=classic;html=1;fontSize=11;fontColor=#FFFFFF;" parent="1" edge="1">
                    <mxGeometry width="50" height="50" relative="1" as="geometry">
                        <mxPoint x="400" y="1390" as="sourcePoint"/>
                        <mxPoint x="400" y="1440" as="targetPoint"/>
                    </mxGeometry>
                </mxCell>
                <mxCell id="123" value="No" style="edgeLabel;html=1;align=center;verticalAlign=middle;resizable=0;points=[];fontSize=11;fontColor=default;" parent="122" vertex="1" connectable="0">
                    <mxGeometry x="-0.2404" y="-1" relative="1" as="geometry">
                        <mxPoint as="offset"/>
                    </mxGeometry>
                </mxCell>
                <mxCell id="158" value="" style="edgeStyle=none;html=1;" parent="1" source="128" target="157" edge="1">
                    <mxGeometry relative="1" as="geometry"/>
                </mxCell>
                <mxCell id="128" value="End" style="rounded=1;whiteSpace=wrap;html=1;fontSize=11;fontColor=#ffffff;fillColor=#1ba1e2;strokeColor=#006EAF;" parent="1" vertex="1">
                    <mxGeometry x="340" y="1710" width="120" height="60" as="geometry"/>
                </mxCell>
                <mxCell id="141" style="edgeStyle=none;html=1;exitX=0.5;exitY=1;exitDx=0;exitDy=0;exitPerimeter=0;entryX=0.5;entryY=0;entryDx=0;entryDy=0;fontSize=9;fontColor=#FFFFFF;startArrow=none;startFill=0;endArrow=classic;endFill=1;" parent="1" source="137" target="139" edge="1">
                    <mxGeometry relative="1" as="geometry"/>
                </mxCell>
                <mxCell id="137" value="&lt;font style=&quot;font-size: 9px;&quot;&gt;put_records_to_firehose_stream&lt;/font&gt;" style="html=1;outlineConnect=0;whiteSpace=wrap;fillColor=#d80073;shape=mxgraph.archimate.application;appType=function;strokeColor=#A50040;fontColor=#ffffff;" parent="1" vertex="1">
                    <mxGeometry x="140" y="2045" width="140" height="70" as="geometry"/>
                </mxCell>
                <mxCell id="151" value="Yes" style="edgeStyle=none;html=1;fontSize=9;fontColor=default;startArrow=none;startFill=0;endArrow=classic;endFill=1;" parent="1" source="139" target="150" edge="1">
                    <mxGeometry relative="1" as="geometry"/>
                </mxCell>
                <mxCell id="153" value="No" style="edgeStyle=none;html=1;fontSize=9;fontColor=default;startArrow=none;startFill=0;endArrow=classic;endFill=1;" parent="1" source="139" target="152" edge="1">
                    <mxGeometry relative="1" as="geometry"/>
                </mxCell>
                <mxCell id="139" value="count for &lt;br&gt;S3 &amp;gt; 0?" style="rhombus;whiteSpace=wrap;html=1;fontSize=9;fontColor=default;" parent="1" vertex="1">
                    <mxGeometry x="360" y="2170" width="80" height="80" as="geometry"/>
                </mxCell>
                <mxCell id="143" value="Yes" style="edgeStyle=none;html=1;fontSize=9;fontColor=default;startArrow=none;startFill=0;endArrow=classic;endFill=1;" parent="1" source="142" target="128" edge="1">
                    <mxGeometry relative="1" as="geometry"/>
                </mxCell>
                <mxCell id="146" value="No" style="edgeStyle=none;html=1;exitX=1;exitY=0.5;exitDx=0;exitDy=0;fontSize=9;fontColor=default;startArrow=none;startFill=0;endArrow=none;endFill=0;" parent="1" source="142" edge="1">
                    <mxGeometry relative="1" as="geometry">
                        <mxPoint x="560.0000000000002" y="1620.166666666667" as="targetPoint"/>
                    </mxGeometry>
                </mxCell>
                <mxCell id="142" value="last message &lt;br&gt;line?" style="rhombus;whiteSpace=wrap;html=1;fontSize=9;fontColor=default;" parent="1" vertex="1">
                    <mxGeometry x="360" y="1580" width="80" height="80" as="geometry"/>
                </mxCell>
                <mxCell id="147" value="" style="endArrow=none;html=1;fontSize=9;fontColor=#FFFFFF;" parent="1" edge="1">
                    <mxGeometry width="50" height="50" relative="1" as="geometry">
                        <mxPoint x="560" y="1620" as="sourcePoint"/>
                        <mxPoint x="560" y="940" as="targetPoint"/>
                    </mxGeometry>
                </mxCell>
                <mxCell id="149" value="" style="endArrow=classic;html=1;fontSize=9;fontColor=#FFFFFF;" parent="1" edge="1">
                    <mxGeometry width="50" height="50" relative="1" as="geometry">
                        <mxPoint x="560" y="940" as="sourcePoint"/>
                        <mxPoint x="400" y="940" as="targetPoint"/>
                    </mxGeometry>
                </mxCell>
                <mxCell id="154" style="edgeStyle=none;html=1;exitX=0.5;exitY=1;exitDx=0;exitDy=0;exitPerimeter=0;entryX=0.5;entryY=0;entryDx=0;entryDy=0;fontSize=9;fontColor=#FFFFFF;startArrow=none;startFill=0;endArrow=classic;endFill=1;" parent="1" source="150" target="152" edge="1">
                    <mxGeometry relative="1" as="geometry"/>
                </mxCell>
                <mxCell id="150" value="&lt;font style=&quot;font-size: 9px;&quot;&gt;put_records_to_s3&lt;/font&gt;" style="html=1;outlineConnect=0;whiteSpace=wrap;fillColor=#d80073;shape=mxgraph.archimate.application;appType=function;strokeColor=#A50040;fontColor=#ffffff;" parent="1" vertex="1">
                    <mxGeometry x="140" y="2175" width="140" height="70" as="geometry"/>
                </mxCell>
                <mxCell id="152" value="&lt;font style=&quot;font-size: 12px;&quot;&gt;End&lt;/font&gt;" style="ellipse;whiteSpace=wrap;html=1;fontSize=9;fontColor=default;" parent="1" vertex="1">
                    <mxGeometry x="350" y="2300.5" width="100" height="60" as="geometry"/>
                </mxCell>
                <mxCell id="155" value="&lt;font style=&quot;font-size: 12px;&quot;&gt;Start&lt;/font&gt;" style="ellipse;whiteSpace=wrap;html=1;fontSize=9;fontColor=#000000;" parent="1" vertex="1">
                    <mxGeometry x="347.5" y="50" width="105" height="70" as="geometry"/>
                </mxCell>
                <mxCell id="160" value="" style="edgeStyle=none;html=1;" parent="1" source="156" target="54" edge="1">
                    <mxGeometry relative="1" as="geometry"/>
                </mxCell>
                <mxCell id="156" value="&lt;font style=&quot;font-size: 12px;&quot;&gt;End&lt;/font&gt;" style="rounded=1;whiteSpace=wrap;html=1;fontSize=9;fontColor=#ffffff;fillColor=#647687;strokeColor=#314354;" parent="1" vertex="1">
                    <mxGeometry x="340" y="1930" width="120" height="60" as="geometry"/>
                </mxCell>
                <mxCell id="159" value="Yes" style="edgeStyle=none;html=1;" parent="1" source="157" target="156" edge="1">
                    <mxGeometry relative="1" as="geometry"/>
                </mxCell>
                <mxCell id="157" value="&lt;font style=&quot;font-size: 10px;&quot;&gt;last message?&lt;/font&gt;" style="rhombus;whiteSpace=wrap;html=1;" parent="1" vertex="1">
                    <mxGeometry x="360" y="1800" width="80" height="80" as="geometry"/>
                </mxCell>
                <mxCell id="161" value="No" style="endArrow=none;html=1;" parent="1" edge="1">
                    <mxGeometry width="50" height="50" relative="1" as="geometry">
                        <mxPoint x="440" y="1840" as="sourcePoint"/>
                        <mxPoint x="600" y="1840" as="targetPoint"/>
                    </mxGeometry>
                </mxCell>
                <mxCell id="162" value="" style="endArrow=none;html=1;" parent="1" edge="1">
                    <mxGeometry width="50" height="50" relative="1" as="geometry">
                        <mxPoint x="600" y="1840" as="sourcePoint"/>
                        <mxPoint x="600" y="610" as="targetPoint"/>
                    </mxGeometry>
                </mxCell>
                <mxCell id="163" value="" style="endArrow=classic;html=1;" parent="1" edge="1">
                    <mxGeometry width="50" height="50" relative="1" as="geometry">
                        <mxPoint x="600" y="610" as="sourcePoint"/>
                        <mxPoint x="400" y="610" as="targetPoint"/>
                    </mxGeometry>
                </mxCell>
            </root>
        </mxGraphModel>
    </diagram>
</mxfile>